<svg width="147" height="98" viewBox="0 0 147 98" fill="none" xmlns="http://www.w3.org/2000/svg">

    <defs>
        <linearGradient id="paint0_linear_109_11" x1="63.9664" y1="-19.5816" x2="-25.9448"
            y2="32.3287" gradientUnits="userSpaceOnUse">
            <stop stop-color="#F1F1F1" />
            <stop offset="0.3331" stop-color="#C1C1C1" />
            <stop offset="0.416309" stop-color="#CECECE" />
            <stop offset="0.664881" stop-color="#9E9E9E" />
            <stop offset="0.760659" stop-color="#C1C1C1" />
            <stop offset="1" stop-color="#E4E3E3" />
        </linearGradient>
        <linearGradient id="paint1_linear_109_11" x1="57.4857" y1="9.86266" x2="56.4851"
            y2="13.5969" gradientUnits="userSpaceOnUse">
            <stop stop-color="white" />
            <stop offset="1" stop-color="#878787" />
        </linearGradient>
        <linearGradient id="paint2_linear_109_11" x1="118.034" y1="-5.93706" x2="42.7337"
            y2="37.5378" gradientUnits="userSpaceOnUse">
            <stop stop-color="#F1F1F1" />
            <stop offset="0.3331" stop-color="#C1C1C1" />
            <stop offset="0.416309" stop-color="#CECECE" />
            <stop offset="0.664881" stop-color="#9E9E9E" />
            <stop offset="0.760659" stop-color="#C1C1C1" />
            <stop offset="1" stop-color="#E4E3E3" />
        </linearGradient>
        <linearGradient id="paint3_linear_109_11" x1="112.607" y1="18.7225" x2="111.769"
            y2="21.8499" gradientUnits="userSpaceOnUse">
            <stop stop-color="white" />
            <stop offset="1" stop-color="#878787" />
        </linearGradient>
    </defs>

    <mask id="path-1-inside-1_109_11" fill="white">
        <path fill-rule="evenodd" clip-rule="evenodd"
            d="M87.6717 52.3415L79.2257 47.7005C79.1523 45.9824 78.9309 44.2731 78.5615 42.5727L85.2423 36.1129C86.0283 35.353 86.1958 34.1846 85.6655 33.2661L80.9588 25.1138C80.4284 24.1953 79.3329 23.7561 78.2818 24.0568L69.3471 26.6127C68.0591 25.4426 66.6895 24.3962 65.2383 23.4736L65.4873 13.8508C65.4826 12.7819 64.7711 11.8148 63.7297 11.5357L54.6742 9.1093C53.6328 8.83026 52.5331 9.31206 51.9945 10.2354L47.3988 18.6935C45.6807 18.7669 43.9714 18.9883 42.2709 19.3577L35.8112 12.6769C35.0512 11.8909 33.8829 11.7234 32.9643 12.2538L24.8121 16.9605C23.8936 17.4908 23.4544 18.5863 23.7551 19.6375L26.311 28.5722C25.1409 29.8601 24.0945 31.2297 23.1718 32.681L13.8388 32.5581C12.782 32.5175 11.8149 33.229 11.5359 34.2704L9.10943 43.3259C8.8304 44.3673 9.3122 45.467 10.2476 45.9603L18.3918 50.5204C18.4652 52.2386 18.6866 53.9479 19.056 55.6483L12.3752 62.108C11.5892 62.868 11.4217 64.0363 11.9521 64.9549L16.6587 73.1071C17.1891 74.0257 18.2846 74.4648 19.3358 74.1641L28.2705 71.6082C29.5584 72.7783 30.928 73.8247 32.3792 74.7474L32.2111 84.0683C32.2158 85.1372 32.9273 86.1043 33.9687 86.3834L43.0242 88.8098C44.0656 89.0888 45.1653 88.607 45.7038 87.6837L50.2187 79.5274C51.9369 79.454 53.6461 79.2326 55.3466 78.8633L61.8063 85.5441C62.5663 86.33 63.7346 86.4975 64.6532 85.9672L72.8054 81.2605C73.7239 80.7302 74.1631 79.6346 73.8624 78.5835L71.3065 69.6488C72.4766 68.3609 73.523 66.9913 74.4457 65.54L84.0806 65.7438C85.1374 65.7843 86.1045 65.0728 86.3835 64.0315L88.8099 54.9759C89.089 53.9345 88.6072 52.8348 87.6717 52.3415ZM45.7757 60.4299C39.5274 58.7557 35.8151 52.3258 37.4893 46.0774C39.1635 39.8291 45.5935 36.1168 51.8418 37.791C58.0901 39.4653 61.8024 45.8952 60.1282 52.1435C58.454 58.3918 52.0241 62.1042 45.7757 60.4299Z" />
    </mask>
    <path fill-rule="evenodd" clip-rule="evenodd"
        d="M87.6717 52.3415L79.2257 47.7005C79.1523 45.9824 78.9309 44.2731 78.5615 42.5727L85.2423 36.1129C86.0283 35.353 86.1958 34.1846 85.6655 33.2661L80.9588 25.1138C80.4284 24.1953 79.3329 23.7561 78.2818 24.0568L69.3471 26.6127C68.0591 25.4426 66.6895 24.3962 65.2383 23.4736L65.4873 13.8508C65.4826 12.7819 64.7711 11.8148 63.7297 11.5357L54.6742 9.1093C53.6328 8.83026 52.5331 9.31206 51.9945 10.2354L47.3988 18.6935C45.6807 18.7669 43.9714 18.9883 42.2709 19.3577L35.8112 12.6769C35.0512 11.8909 33.8829 11.7234 32.9643 12.2538L24.8121 16.9605C23.8936 17.4908 23.4544 18.5863 23.7551 19.6375L26.311 28.5722C25.1409 29.8601 24.0945 31.2297 23.1718 32.681L13.8388 32.5581C12.782 32.5175 11.8149 33.229 11.5359 34.2704L9.10943 43.3259C8.8304 44.3673 9.3122 45.467 10.2476 45.9603L18.3918 50.5204C18.4652 52.2386 18.6866 53.9479 19.056 55.6483L12.3752 62.108C11.5892 62.868 11.4217 64.0363 11.9521 64.9549L16.6587 73.1071C17.1891 74.0257 18.2846 74.4648 19.3358 74.1641L28.2705 71.6082C29.5584 72.7783 30.928 73.8247 32.3792 74.7474L32.2111 84.0683C32.2158 85.1372 32.9273 86.1043 33.9687 86.3834L43.0242 88.8098C44.0656 89.0888 45.1653 88.607 45.7038 87.6837L50.2187 79.5274C51.9369 79.454 53.6461 79.2326 55.3466 78.8633L61.8063 85.5441C62.5663 86.33 63.7346 86.4975 64.6532 85.9672L72.8054 81.2605C73.7239 80.7302 74.1631 79.6346 73.8624 78.5835L71.3065 69.6488C72.4766 68.3609 73.523 66.9913 74.4457 65.54L84.0806 65.7438C85.1374 65.7843 86.1045 65.0728 86.3835 64.0315L88.8099 54.9759C89.089 53.9345 88.6072 52.8348 87.6717 52.3415ZM45.7757 60.4299C39.5274 58.7557 35.8151 52.3258 37.4893 46.0774C39.1635 39.8291 45.5935 36.1168 51.8418 37.791C58.0901 39.4653 61.8024 45.8952 60.1282 52.1435C58.454 58.3918 52.0241 62.1042 45.7757 60.4299Z"
        fill="url(#paint0_linear_109_11)" />
    <path
        d="M87.6717 52.3415L86.7086 54.0944L86.7236 54.1026L86.7388 54.1106L87.6717 52.3415ZM79.2257 47.7005L77.2276 47.7859L77.2756 48.911L78.2626 49.4534L79.2257 47.7005ZM78.5615 42.5727L77.1713 41.1349L76.3707 41.909L76.6071 42.9972L78.5615 42.5727ZM85.6655 33.2661L83.9334 34.2661L85.6655 33.2661ZM80.9588 25.1138L82.6908 24.1138L80.9588 25.1138ZM78.2818 24.0568L77.7317 22.134L78.2818 24.0568ZM69.3471 26.6127L68.0022 28.093L68.8264 28.8419L69.8971 28.5356L69.3471 26.6127ZM65.2383 23.4736L63.2389 23.4218L63.2096 24.5538L64.1652 25.1613L65.2383 23.4736ZM65.4873 13.8508L67.4867 13.9025L67.4874 13.8722L67.4873 13.8419L65.4873 13.8508ZM63.7297 11.5357L64.2474 9.60388L63.7297 11.5357ZM54.6742 9.1093L54.1565 11.0412L54.6742 9.1093ZM51.9945 10.2354L50.267 9.22768L50.2517 9.25388L50.2372 9.28053L51.9945 10.2354ZM47.3988 18.6935L47.4842 20.6917L48.6156 20.6433L49.1562 19.6484L47.3988 18.6935ZM42.2709 19.3577L40.8331 20.7479L41.6072 21.5485L42.6955 21.3121L42.2709 19.3577ZM35.8112 12.6769L37.249 11.2867L35.8112 12.6769ZM32.9643 12.2538L33.9643 13.9858L32.9643 12.2538ZM24.8121 16.9605L23.8121 15.2284L24.8121 16.9605ZM23.7551 19.6375L21.8323 20.1875L23.7551 19.6375ZM26.311 28.5722L27.7913 29.917L28.5401 29.0928L28.2339 28.0221L26.311 28.5722ZM23.1718 32.681L23.1455 34.6808L24.2611 34.6955L24.8596 33.754L23.1718 32.681ZM13.8388 32.5581L13.7621 34.5566L13.7873 34.5576L13.8124 34.5579L13.8388 32.5581ZM10.2476 45.9603L11.2248 44.2152L11.2028 44.2029L11.1806 44.1912L10.2476 45.9603ZM18.3918 50.5204L20.39 50.435L20.3423 49.3204L19.3689 48.7753L18.3918 50.5204ZM19.056 55.6483L20.4462 57.0861L21.2468 56.312L21.0104 55.2237L19.056 55.6483ZM12.3752 62.108L10.9849 60.6702L12.3752 62.108ZM19.3358 74.1641L19.8858 76.087L19.3358 74.1641ZM28.2705 71.6082L29.6153 70.1279L28.7911 69.3791L27.7204 69.6854L28.2705 71.6082ZM32.3792 74.7474L34.3789 74.7835L34.3992 73.6616L33.4523 73.0596L32.3792 74.7474ZM32.2111 84.0683L30.2114 84.0323L30.211 84.0547L30.2111 84.0772L32.2111 84.0683ZM33.9687 86.3834L34.4863 84.4515L33.9687 86.3834ZM43.0242 88.8098L42.5066 90.7416L43.0242 88.8098ZM45.7038 87.6837L47.4314 88.6914L47.4428 88.672L47.4537 88.6523L45.7038 87.6837ZM50.2187 79.5274L50.1333 77.5293L49.0123 77.5772L48.4689 78.5589L50.2187 79.5274ZM55.3466 78.8633L56.7844 77.473L56.0103 76.6724L54.922 76.9088L55.3466 78.8633ZM64.6532 85.9672L63.6532 84.2351L64.6532 85.9672ZM72.8054 81.2605L73.8054 82.9925L72.8054 81.2605ZM71.3065 69.6488L69.8262 68.3039L69.0774 69.1282L69.3836 70.1988L71.3065 69.6488ZM74.4457 65.54L74.488 63.5404L73.3621 63.5166L72.7579 64.4669L74.4457 65.54ZM84.0806 65.7438L84.1572 63.7452L84.1401 63.7446L84.1229 63.7442L84.0806 65.7438ZM88.6349 50.5887L80.1889 45.9477L78.2626 49.4534L86.7086 54.0944L88.6349 50.5887ZM81.2239 47.6152C81.1455 45.7815 80.9093 43.9588 80.516 42.1481L76.6071 42.9972C76.9525 44.5873 77.1591 46.1832 77.2276 47.7859L81.2239 47.6152ZM79.9518 44.0105L86.6326 37.5507L83.8521 34.6751L77.1713 41.1349L79.9518 44.0105ZM86.6326 37.5507C88.0619 36.1687 88.398 33.999 87.3975 32.2661L83.9334 34.2661C83.9935 34.3702 83.9948 34.5372 83.8521 34.6751L86.6326 37.5507ZM87.3975 32.2661L82.6908 24.1138L79.2267 26.1138L83.9334 34.2661L87.3975 32.2661ZM82.6908 24.1138C81.6903 22.3809 79.6432 21.5872 77.7317 22.134L78.8318 25.9797C79.0226 25.9251 79.1666 26.0097 79.2267 26.1138L82.6908 24.1138ZM77.7317 22.134L68.797 24.6898L69.8971 28.5356L78.8318 25.9797L77.7317 22.134ZM70.6919 25.1324C69.3205 23.8864 67.8601 22.7705 66.3113 21.7858L64.1652 25.1613C65.519 26.022 66.7978 26.9988 68.0022 28.093L70.6919 25.1324ZM67.2376 23.5253L67.4867 13.9025L63.488 13.799L63.2389 23.4218L67.2376 23.5253ZM67.4873 13.8419C67.4787 11.9109 66.1978 10.1265 64.2474 9.60388L63.2121 13.4676C63.3444 13.503 63.4864 13.6528 63.4873 13.8597L67.4873 13.8419ZM64.2474 9.60388L55.1918 7.17745L54.1565 11.0412L63.2121 13.4676L64.2474 9.60388ZM55.1918 7.17745C53.2414 6.65483 51.2399 7.55969 50.267 9.22768L53.7221 11.2431C53.8263 11.0644 54.0242 11.0057 54.1565 11.0412L55.1918 7.17745ZM50.2372 9.28053L45.6415 17.7386L49.1562 19.6484L53.7519 11.1902L50.2372 9.28053ZM47.3134 16.6953C45.4798 16.7737 43.6571 17.01 41.8464 17.4033L42.6955 21.3121C44.2856 20.9667 45.8815 20.7602 47.4842 20.6917L47.3134 16.6953ZM43.7087 17.9675L37.249 11.2867L34.3734 14.0671L40.8331 20.7479L43.7087 17.9675ZM37.249 11.2867C35.867 9.85737 33.6973 9.52119 31.9643 10.5217L33.9643 13.9858C34.0685 13.9257 34.2355 13.9245 34.3734 14.0671L37.249 11.2867ZM31.9643 10.5217L23.8121 15.2284L25.8121 18.6925L33.9643 13.9858L31.9643 10.5217ZM23.8121 15.2284C22.0792 16.2289 21.2854 18.276 21.8323 20.1875L25.678 19.0874C25.6234 18.8966 25.708 18.7526 25.8121 18.6925L23.8121 15.2284ZM21.8323 20.1875L24.3881 29.1222L28.2339 28.0221L25.678 19.0874L21.8323 20.1875ZM24.8307 27.2273C23.5847 28.5987 22.4687 30.0591 21.4841 31.6079L24.8596 33.754C25.7203 32.4002 26.6971 31.1214 27.7913 29.917L24.8307 27.2273ZM23.1982 30.6811L13.8651 30.5582L13.8124 34.5579L23.1455 34.6808L23.1982 30.6811ZM13.9154 30.5595C11.9169 30.4829 10.1225 31.8177 9.60401 33.7527L13.4677 34.788C13.486 34.7196 13.5272 34.6593 13.5866 34.6153C13.6466 34.5708 13.7091 34.5546 13.7621 34.5566L13.9154 30.5595ZM9.60401 33.7527L7.17758 42.8083L11.0413 43.8436L13.4677 34.788L9.60401 33.7527ZM7.17758 42.8083C6.65908 44.7434 7.54572 46.7965 9.31474 47.7294L11.1806 44.1912C11.1336 44.1664 11.0876 44.1211 11.0579 44.0526C11.0284 43.9848 11.023 43.912 11.0413 43.8436L7.17758 42.8083ZM9.27054 47.7053L17.4147 52.2655L19.3689 48.7753L11.2248 44.2152L9.27054 47.7053ZM16.3936 50.6058C16.472 52.4394 16.7082 54.2621 17.1015 56.0728L21.0104 55.2237C20.665 53.6336 20.4585 52.0377 20.39 50.435L16.3936 50.6058ZM17.6657 54.2105L10.9849 60.6702L13.7654 63.5458L20.4462 57.0861L17.6657 54.2105ZM10.9849 60.6702C9.55565 62.0522 9.21947 64.2219 10.22 65.9549L13.6841 63.9549C13.624 63.8507 13.6227 63.6838 13.7654 63.5458L10.9849 60.6702ZM10.22 65.9549L14.9267 74.1071L18.3908 72.1071L13.6841 63.9549L10.22 65.9549ZM14.9267 74.1071C15.9272 75.8401 17.9743 76.6338 19.8858 76.087L18.7857 72.2412C18.5949 72.2958 18.4509 72.2112 18.3908 72.1071L14.9267 74.1071ZM19.8858 76.087L28.8205 73.5311L27.7204 69.6854L18.7857 72.2412L19.8858 76.087ZM26.9256 73.0885C28.297 74.3345 29.7574 75.4505 31.3062 76.4352L33.4523 73.0596C32.0985 72.1989 30.8197 71.2221 29.6153 70.1279L26.9256 73.0885ZM30.3796 74.7113L30.2114 84.0323L34.2107 84.1044L34.3789 74.7835L30.3796 74.7113ZM30.2111 84.0772C30.2197 86.0082 31.5006 87.7926 33.451 88.3152L34.4863 84.4515C34.3539 84.416 34.212 84.2663 34.211 84.0594L30.2111 84.0772ZM33.451 88.3152L42.5066 90.7416L43.5418 86.8779L34.4863 84.4515L33.451 88.3152ZM42.5066 90.7416C44.457 91.2643 46.4585 90.3594 47.4314 88.6914L43.9763 86.676C43.8721 86.8547 43.6742 86.9134 43.5418 86.8779L42.5066 90.7416ZM47.4537 88.6523L51.9685 80.496L48.4689 78.5589L43.954 86.7151L47.4537 88.6523ZM50.3041 81.5256C52.1377 81.4473 53.9604 81.211 55.7711 80.8177L54.922 76.9088C53.3319 77.2542 51.736 77.4608 50.1333 77.5293L50.3041 81.5256ZM53.9088 80.2535L60.3685 86.9343L63.2441 84.1538L56.7844 77.473L53.9088 80.2535ZM60.3685 86.9343C61.7505 88.3636 63.9202 88.6998 65.6532 87.6992L63.6532 84.2351C63.549 84.2952 63.382 84.2965 63.2441 84.1538L60.3685 86.9343ZM65.6532 87.6992L73.8054 82.9925L71.8054 79.5284L63.6532 84.2351L65.6532 87.6992ZM73.8054 82.9925C75.5384 81.992 76.3321 79.9449 75.7853 78.0334L71.9395 79.1335C71.9941 79.3243 71.9095 79.4683 71.8054 79.5284L73.8054 82.9925ZM75.7853 78.0334L73.2294 69.0987L69.3836 70.1988L71.9395 79.1335L75.7853 78.0334ZM72.7868 70.9936C74.0328 69.6222 75.1488 68.1618 76.1334 66.613L72.7579 64.4669C71.8972 65.8207 70.9204 67.0995 69.8262 68.3039L72.7868 70.9936ZM74.4034 67.5395L84.0383 67.7433L84.1229 63.7442L74.488 63.5404L74.4034 67.5395ZM84.004 67.7423C86.0024 67.8189 87.7969 66.4842 88.3154 64.5491L84.4516 63.5138C84.4333 63.5822 84.3922 63.6425 84.3328 63.6866C84.2728 63.731 84.2102 63.7473 84.1572 63.7452L84.004 67.7423ZM88.3154 64.5491L90.7418 55.4935L86.8781 54.4583L84.4516 63.5138L88.3154 64.5491ZM90.7418 55.4935C91.2603 53.5585 90.3736 51.5053 88.6046 50.5725L86.7388 54.1106C86.7857 54.1354 86.8318 54.1807 86.8615 54.2492C86.8909 54.3171 86.8964 54.3899 86.8781 54.4583L90.7418 55.4935ZM46.2934 58.4981C41.112 57.1097 38.0328 51.7765 39.4212 46.5951L35.5575 45.5598C33.5973 52.8751 37.9428 60.4016 45.2581 62.3618L46.2934 58.4981ZM39.4212 46.5951C40.8095 41.4137 46.1428 38.3345 51.3242 39.7229L52.3594 35.8592C45.0442 33.8991 37.5176 38.2445 35.5575 45.5598L39.4212 46.5951ZM51.3242 39.7229C56.5056 41.1112 59.5847 46.4445 58.1963 51.6259L62.06 52.6611C64.0202 45.3459 59.6747 37.8193 52.3594 35.8592L51.3242 39.7229ZM58.1963 51.6259C56.808 56.8073 51.4748 59.8864 46.2934 58.4981L45.2581 62.3618C52.5733 64.3219 60.0999 59.9764 62.06 52.6611L58.1963 51.6259Z"
        fill="url(#paint1_linear_109_11)" mask="url(#path-1-inside-1_109_11)" />
    <mask id="path-3-inside-2_109_11" fill="white">
        <path fill-rule="evenodd" clip-rule="evenodd"
            d="M137.888 54.2985L130.814 50.4117C130.753 48.9727 130.567 47.5412 130.258 46.1171L135.853 40.7071C136.511 40.0706 136.651 39.0921 136.207 38.3228L132.265 31.4953C131.821 30.7261 130.904 30.3583 130.023 30.6101L122.541 32.7506C121.462 31.7707 120.315 30.8944 119.1 30.1216L119.308 22.0625C119.304 21.1673 118.708 20.3574 117.836 20.1237L110.252 18.0915C109.38 17.8578 108.459 18.2614 108.008 19.0346L104.159 26.1183C102.72 26.1798 101.289 26.3652 99.8644 26.6746L94.4544 21.0794C93.8179 20.4211 92.8394 20.2809 92.0701 20.725L85.2426 24.6669C84.4734 25.111 84.1056 26.0286 84.3574 26.9089L86.4979 34.3917C85.518 35.4703 84.6417 36.6174 83.8689 37.8328L76.0524 37.7299C75.1674 37.6959 74.3575 38.2918 74.1238 39.1639L72.0916 46.748C71.8579 47.6201 72.2615 48.5411 73.0449 48.9542L79.8656 52.7733C79.9271 54.2123 80.1125 55.6438 80.4219 57.0679L74.8267 62.478C74.1684 63.1144 74.0282 64.0929 74.4723 64.8622L78.4142 71.6897C78.8583 72.459 79.7759 72.8268 80.6562 72.5749L88.139 70.4344C89.2176 71.4143 90.3647 72.2907 91.5801 73.0634L91.4393 80.8697C91.4432 81.7649 92.0391 82.5749 92.9112 82.8086L100.495 84.8407C101.367 85.0744 102.288 84.6709 102.739 83.8976L106.521 77.0667C107.96 77.0052 109.391 76.8198 110.815 76.5105L116.225 82.1056C116.862 82.7639 117.84 82.9042 118.61 82.46L125.437 78.5182C126.206 78.074 126.574 77.1565 126.322 76.2762L124.182 68.7933C125.162 67.7147 126.038 66.5677 126.811 65.3522L134.88 65.5229C135.765 65.5568 136.575 64.961 136.809 64.0888L138.841 56.5048C139.074 55.6327 138.671 54.7117 137.888 54.2985ZM103.454 61.6138C98.1217 60.1851 94.9538 54.6982 96.3825 49.3663C97.8112 44.0344 103.298 40.8666 108.63 42.2953C113.962 43.7239 117.13 49.2108 115.701 54.5427C114.272 59.8746 108.785 63.0424 103.454 61.6138Z" />
    </mask>
    <path fill-rule="evenodd" clip-rule="evenodd"
        d="M137.888 54.2985L130.814 50.4117C130.753 48.9727 130.567 47.5412 130.258 46.1171L135.853 40.7071C136.511 40.0706 136.651 39.0921 136.207 38.3228L132.265 31.4953C131.821 30.7261 130.904 30.3583 130.023 30.6101L122.541 32.7506C121.462 31.7707 120.315 30.8944 119.1 30.1216L119.308 22.0625C119.304 21.1673 118.708 20.3574 117.836 20.1237L110.252 18.0915C109.38 17.8578 108.459 18.2614 108.008 19.0346L104.159 26.1183C102.72 26.1798 101.289 26.3652 99.8644 26.6746L94.4544 21.0794C93.8179 20.4211 92.8394 20.2809 92.0701 20.725L85.2426 24.6669C84.4734 25.111 84.1056 26.0286 84.3574 26.9089L86.4979 34.3917C85.518 35.4703 84.6417 36.6174 83.8689 37.8328L76.0524 37.7299C75.1674 37.6959 74.3575 38.2918 74.1238 39.1639L72.0916 46.748C71.8579 47.6201 72.2615 48.5411 73.0449 48.9542L79.8656 52.7733C79.9271 54.2123 80.1125 55.6438 80.4219 57.0679L74.8267 62.478C74.1684 63.1144 74.0282 64.0929 74.4723 64.8622L78.4142 71.6897C78.8583 72.459 79.7759 72.8268 80.6562 72.5749L88.139 70.4344C89.2176 71.4143 90.3647 72.2907 91.5801 73.0634L91.4393 80.8697C91.4432 81.7649 92.0391 82.5749 92.9112 82.8086L100.495 84.8407C101.367 85.0744 102.288 84.6709 102.739 83.8976L106.521 77.0667C107.96 77.0052 109.391 76.8198 110.815 76.5105L116.225 82.1056C116.862 82.7639 117.84 82.9042 118.61 82.46L125.437 78.5182C126.206 78.074 126.574 77.1565 126.322 76.2762L124.182 68.7933C125.162 67.7147 126.038 66.5677 126.811 65.3522L134.88 65.5229C135.765 65.5568 136.575 64.961 136.809 64.0888L138.841 56.5048C139.074 55.6327 138.671 54.7117 137.888 54.2985ZM103.454 61.6138C98.1217 60.1851 94.9538 54.6982 96.3825 49.3663C97.8112 44.0344 103.298 40.8666 108.63 42.2953C113.962 43.7239 117.13 49.2108 115.701 54.5427C114.272 59.8746 108.785 63.0424 103.454 61.6138Z"
        fill="url(#paint2_linear_109_11)" />
    <path
        d="M137.888 54.2985L136.924 56.0514L136.939 56.0596L136.955 56.0676L137.888 54.2985ZM130.814 50.4117L128.816 50.4971L128.864 51.6222L129.851 52.1645L130.814 50.4117ZM130.258 46.1171L128.868 44.6793L128.067 45.4534L128.303 46.5416L130.258 46.1171ZM135.853 40.7071L137.243 42.1449L137.243 42.1449L135.853 40.7071ZM136.207 38.3228L137.939 37.3228L137.939 37.3228L136.207 38.3228ZM132.265 31.4953L130.533 32.4953L130.533 32.4953L132.265 31.4953ZM130.023 30.6101L129.473 28.6872L129.473 28.6872L130.023 30.6101ZM122.541 32.7506L121.196 34.231L122.02 34.9798L123.091 34.6735L122.541 32.7506ZM119.1 30.1216L117.1 30.0699L117.071 31.2018L118.026 31.8094L119.1 30.1216ZM119.308 22.0625L121.307 22.1143L121.308 22.0839L121.308 22.0536L119.308 22.0625ZM117.836 20.1237L118.354 18.1918L117.836 20.1237ZM110.252 18.0915L109.734 20.0234L110.252 18.0915ZM108.008 19.0346L106.28 18.0269L106.265 18.0531L106.251 18.0798L108.008 19.0346ZM104.159 26.1183L104.244 28.1165L105.376 28.0681L105.916 27.0732L104.159 26.1183ZM99.8644 26.6746L98.4266 28.0648L99.2007 28.8654L100.289 28.629L99.8644 26.6746ZM94.4544 21.0794L95.8922 19.6892L95.8922 19.6892L94.4544 21.0794ZM92.0701 20.725L93.0701 22.4571L92.0701 20.725ZM85.2426 24.6669L84.2426 22.9348L85.2426 24.6669ZM84.3574 26.9089L82.4345 27.4589L82.4345 27.4589L84.3574 26.9089ZM86.4979 34.3917L87.9783 35.7366L88.7271 34.9123L88.4208 33.8416L86.4979 34.3917ZM83.8689 37.8328L83.8426 39.8326L84.9581 39.8473L85.5567 38.9058L83.8689 37.8328ZM76.0524 37.7299L75.9758 39.7284L76.001 39.7294L76.0261 39.7297L76.0524 37.7299ZM74.1238 39.1639L72.1919 38.6463L74.1238 39.1639ZM72.0916 46.748L74.0235 47.2656L72.0916 46.748ZM73.0449 48.9542L74.022 47.2092L74 47.1969L73.9778 47.1851L73.0449 48.9542ZM79.8656 52.7733L81.8638 52.6879L81.8161 51.5733L80.8427 51.0283L79.8656 52.7733ZM80.4219 57.0679L81.8121 58.5057L82.6127 57.7316L82.3763 56.6434L80.4219 57.0679ZM74.8267 62.478L73.4365 61.0402L74.8267 62.478ZM74.4723 64.8622L76.2044 63.8622L76.2044 63.8622L74.4723 64.8622ZM78.4142 71.6897L76.6821 72.6897L76.6821 72.6897L78.4142 71.6897ZM80.6562 72.5749L81.2062 74.4978L81.2062 74.4978L80.6562 72.5749ZM88.139 70.4344L89.4839 68.9541L88.6596 68.2052L87.5889 68.5115L88.139 70.4344ZM91.5801 73.0634L93.5798 73.0995L93.6 71.9777L92.6531 71.3757L91.5801 73.0634ZM91.4393 80.8697L89.4396 80.8337L89.4392 80.8561L89.4393 80.8786L91.4393 80.8697ZM102.739 83.8976L104.467 84.9053L104.478 84.8859L104.489 84.8662L102.739 83.8976ZM106.521 77.0667L106.435 75.0686L105.314 75.1165L104.771 76.0981L106.521 77.0667ZM110.815 76.5105L112.253 75.1203L111.479 74.3197L110.391 74.5561L110.815 76.5105ZM116.225 82.1056L114.787 83.4959L114.787 83.4959L116.225 82.1056ZM118.61 82.46L119.61 84.1921L118.61 82.46ZM125.437 78.5182L124.437 76.7861L125.437 78.5182ZM126.322 76.2762L128.245 75.7261L128.245 75.7261L126.322 76.2762ZM124.182 68.7933L122.701 67.4485L121.953 68.2727L122.259 69.3434L124.182 68.7933ZM126.811 65.3522L126.853 63.3527L125.727 63.3289L125.123 64.2792L126.811 65.3522ZM134.88 65.5229L134.957 63.5244L134.939 63.5237L134.922 63.5234L134.88 65.5229ZM138.851 52.5457L131.777 48.6589L129.851 52.1645L136.924 56.0514L138.851 52.5457ZM132.812 50.3263C132.746 48.7719 132.545 47.2269 132.212 45.6926L128.303 46.5416C128.589 47.8555 128.759 49.1736 128.816 50.4971L132.812 50.3263ZM131.648 47.5549L137.243 42.1449L134.463 39.2693L128.868 44.6793L131.648 47.5549ZM137.243 42.1449C138.545 40.8864 138.854 38.9065 137.939 37.3228L134.475 39.3228C134.471 39.3157 134.467 39.3062 134.466 39.296C134.464 39.2865 134.464 39.2789 134.465 39.2737C134.466 39.2685 134.467 39.2653 134.468 39.264C134.469 39.2621 134.468 39.2641 134.463 39.2693L137.243 42.1449ZM137.939 37.3228L133.998 30.4953L130.533 32.4953L134.475 39.3228L137.939 37.3228ZM133.998 30.4953C133.083 28.9116 131.214 28.1893 129.473 28.6872L130.574 32.533C130.581 32.5309 130.583 32.5315 130.581 32.5314C130.579 32.5313 130.576 32.5309 130.571 32.5289C130.566 32.527 130.559 32.5234 130.552 32.5171C130.544 32.5104 130.538 32.5025 130.533 32.4953L133.998 30.4953ZM129.473 28.6872L121.991 30.8278L123.091 34.6735L130.574 32.533L129.473 28.6872ZM123.886 31.2703C122.723 30.2145 121.486 29.2686 120.173 28.4338L118.026 31.8094C119.144 32.5201 120.201 33.3269 121.196 34.231L123.886 31.2703ZM121.099 30.1734L121.307 22.1143L117.309 22.0108L117.1 30.0699L121.099 30.1734ZM121.308 22.0536C121.3 20.2963 120.135 18.6691 118.354 18.1918L117.319 22.0555C117.315 22.0547 117.312 22.0534 117.308 22.0518C117.305 22.0502 117.302 22.0486 117.3 22.0473C117.297 22.0449 117.297 22.0443 117.299 22.0473C117.302 22.0505 117.304 22.055 117.306 22.0601C117.308 22.0648 117.308 22.0685 117.308 22.0714L121.308 22.0536ZM118.354 18.1918L110.77 16.1597L109.734 20.0234L117.319 22.0555L118.354 18.1918ZM110.77 16.1597C108.989 15.6824 107.166 16.509 106.28 18.0269L109.736 20.0423C109.737 20.0398 109.739 20.0368 109.743 20.0336C109.747 20.03 109.751 20.0274 109.755 20.0258C109.759 20.0243 109.759 20.025 109.754 20.0254C109.752 20.0255 109.749 20.0256 109.745 20.0253C109.741 20.0249 109.738 20.0242 109.734 20.0234L110.77 16.1597ZM106.251 18.0798L102.402 25.1635L105.916 27.0732L109.765 19.9895L106.251 18.0798ZM104.074 24.1201C102.519 24.1866 100.974 24.3868 99.4399 24.7201L100.289 28.629C101.603 28.3436 102.921 28.173 104.244 28.1165L104.074 24.1201ZM101.302 25.2843L95.8922 19.6892L93.0166 22.4696L98.4266 28.0648L101.302 25.2843ZM95.8922 19.6892C94.6337 18.3876 92.6538 18.0786 91.0701 18.993L93.0701 22.4571C93.063 22.4612 93.0535 22.4649 93.0433 22.4668C93.0338 22.4685 93.0262 22.4683 93.021 22.4675C93.0158 22.4668 93.0126 22.4654 93.0113 22.4647C93.0094 22.4638 93.0114 22.4643 93.0166 22.4696L95.8922 19.6892ZM91.0701 18.993L84.2426 22.9348L86.2426 26.3989L93.0701 22.4571L91.0701 18.993ZM84.2426 22.9348C82.6589 23.8492 81.9366 25.7183 82.4345 27.4589L86.2803 26.3588C86.2782 26.3517 86.2788 26.3497 86.2787 26.3518C86.2786 26.3533 86.2782 26.3567 86.2762 26.3616C86.2743 26.3665 86.2707 26.3732 86.2644 26.3806C86.2577 26.3884 86.2498 26.3948 86.2426 26.3989L84.2426 22.9348ZM82.4345 27.4589L84.5751 34.9418L88.4208 33.8416L86.2803 26.3588L82.4345 27.4589ZM85.0176 33.0468C83.9618 34.209 83.0159 35.4468 82.1811 36.7598L85.5567 38.9058C86.2674 37.7879 87.0742 36.7317 87.9783 35.7366L85.0176 33.0468ZM83.8952 35.833L76.0788 35.7301L76.0261 39.7297L83.8426 39.8326L83.8952 35.833ZM76.1291 35.7313C74.3024 35.6613 72.6651 36.8805 72.1919 38.6463L76.0556 39.6816C76.0513 39.6978 76.0418 39.7087 76.0348 39.7139C76.0284 39.7186 76.0087 39.7297 75.9758 39.7284L76.1291 35.7313ZM72.1919 38.6463L70.1598 46.2303L74.0235 47.2656L76.0556 39.6816L72.1919 38.6463ZM70.1598 46.2303C69.6866 47.9962 70.495 49.8706 72.112 50.7233L73.9778 47.1851C74.0069 47.2005 74.0184 47.2199 74.0216 47.2272C74.0251 47.2352 74.0278 47.2494 74.0235 47.2656L70.1598 46.2303ZM72.0678 50.6993L78.8885 54.5184L80.8427 51.0283L74.022 47.2092L72.0678 50.6993ZM77.8674 52.8587C77.9339 54.4131 78.1341 55.9581 78.4674 57.4925L82.3763 56.6434C82.0909 55.3296 81.9203 54.0115 81.8638 52.6879L77.8674 52.8587ZM79.0316 55.6301L73.4365 61.0402L76.2169 63.9158L81.8121 58.5057L79.0316 55.6301ZM73.4365 61.0402C72.1349 62.2987 71.8259 64.2785 72.7403 65.8622L76.2044 63.8622C76.2085 63.8693 76.2122 63.8789 76.2141 63.889C76.2158 63.8986 76.2156 63.9062 76.2148 63.9113C76.2141 63.9165 76.2127 63.9197 76.212 63.9211C76.2111 63.9229 76.2116 63.9209 76.2169 63.9158L73.4365 61.0402ZM72.7403 65.8622L76.6821 72.6897L80.1462 70.6897L76.2044 63.8622L72.7403 65.8622ZM76.6821 72.6897C77.5965 74.2734 79.4655 74.9958 81.2062 74.4978L80.1061 70.6521C80.099 70.6541 80.097 70.6535 80.0991 70.6537C80.1006 70.6537 80.104 70.6542 80.1089 70.6561C80.1138 70.658 80.1205 70.6616 80.1279 70.6679C80.1357 70.6746 80.1421 70.6826 80.1462 70.6897L76.6821 72.6897ZM81.2062 74.4978L88.6891 72.3573L87.5889 68.5115L80.1061 70.6521L81.2062 74.4978ZM86.7941 71.9147C87.9563 72.9705 89.1941 73.9165 90.5071 74.7512L92.6531 71.3757C91.5352 70.6649 90.479 69.8582 89.4839 68.9541L86.7941 71.9147ZM89.5804 73.0274L89.4396 80.8337L93.4389 80.9058L93.5798 73.0995L89.5804 73.0274ZM89.4393 80.8786C89.4471 82.6359 90.6124 84.2632 92.3936 84.7404L93.4289 80.8767C93.432 80.8776 93.4356 80.8788 93.4391 80.8804C93.4425 80.882 93.4452 80.8836 93.447 80.8849C93.4506 80.8874 93.4502 80.8879 93.4479 80.8849C93.4456 80.8817 93.443 80.8772 93.4413 80.8721C93.4397 80.8675 93.4392 80.8637 93.4392 80.8608L89.4393 80.8786ZM92.3936 84.7404L99.9776 86.7726L101.013 82.9089L93.4289 80.8767L92.3936 84.7404ZM99.9776 86.7726C101.759 87.2498 103.582 86.4233 104.467 84.9053L101.012 82.8899C101.01 82.8924 101.008 82.8954 101.004 82.8987C101 82.9022 100.996 82.9049 100.992 82.9064C100.989 82.9079 100.989 82.9072 100.993 82.9069C100.995 82.9067 100.998 82.9066 101.002 82.907C101.006 82.9073 101.01 82.908 101.013 82.9089L99.9776 86.7726ZM104.489 84.8662L108.27 78.0353L104.771 76.0981L100.99 82.929L104.489 84.8662ZM106.606 79.0649C108.16 78.9985 109.705 78.7982 111.24 78.4649L110.391 74.5561C109.077 74.8414 107.759 75.012 106.435 75.0686L106.606 79.0649ZM109.377 77.9007L114.787 83.4959L117.663 80.7154L112.253 75.1203L109.377 77.9007ZM114.787 83.4959C116.046 84.7975 118.026 85.1064 119.61 84.1921L117.61 80.728C117.617 80.7239 117.626 80.7202 117.636 80.7183C117.646 80.7165 117.653 80.7168 117.659 80.7175C117.664 80.7183 117.667 80.7196 117.668 80.7203C117.67 80.7213 117.668 80.7207 117.663 80.7154L114.787 83.4959ZM119.61 84.1921L126.437 80.2502L124.437 76.7861L117.61 80.728L119.61 84.1921ZM126.437 80.2502C128.021 79.3359 128.743 77.4668 128.245 75.7261L124.399 76.8262C124.401 76.8333 124.401 76.8353 124.401 76.8332C124.401 76.8317 124.401 76.8283 124.403 76.8234C124.405 76.8186 124.409 76.8119 124.415 76.8045C124.422 76.7966 124.43 76.7902 124.437 76.7861L126.437 80.2502ZM128.245 75.7261L126.105 68.2433L122.259 69.3434L124.399 76.8262L128.245 75.7261ZM125.662 70.1382C126.718 68.9761 127.664 67.7382 128.499 66.4253L125.123 64.2792C124.412 65.3971 123.605 66.4534 122.701 67.4485L125.662 70.1382ZM126.768 67.3518L134.838 67.5225L134.922 63.5234L126.853 63.3527L126.768 67.3518ZM134.803 67.5214C136.63 67.5915 138.267 66.3723 138.741 64.6065L134.877 63.5712C134.881 63.555 134.891 63.5441 134.898 63.5389C134.904 63.5342 134.924 63.5231 134.957 63.5244L134.803 67.5214ZM138.741 64.6065L140.773 57.0225L136.909 55.9872L134.877 63.5712L138.741 64.6065ZM140.773 57.0225C141.246 55.2566 140.437 53.3822 138.82 52.5295L136.955 56.0676C136.926 56.0523 136.914 56.0329 136.911 56.0256C136.907 56.0176 136.905 56.0034 136.909 55.9872L140.773 57.0225ZM103.971 59.6819C99.7062 58.5391 97.1716 54.1489 98.3144 49.884L94.4507 48.8487C92.7361 55.2475 96.5371 61.8311 102.936 63.5456L103.971 59.6819ZM98.3144 49.884C99.4572 45.619 103.847 43.0843 108.112 44.2271L109.148 40.3634C102.749 38.6488 96.1652 42.4498 94.4507 48.8487L98.3144 49.884ZM108.112 44.2271C112.377 45.3699 114.912 49.7601 113.769 54.0251L117.633 55.0603C119.347 48.6615 115.546 42.078 109.148 40.3634L108.112 44.2271ZM113.769 54.0251C112.626 58.29 108.236 60.8247 103.971 59.6819L102.936 63.5456C109.335 65.2602 115.918 61.4592 117.633 55.0603L113.769 54.0251Z"
        fill="url(#paint3_linear_109_11)" mask="url(#path-3-inside-2_109_11)" />
</svg>
