<svg width="14" height="14" viewBox="0 0 14 14" fill="none" xmlns="http://www.w3.org/2000/svg">
<g filter="url(#filter0_i_1_284)">
<path fill-rule="evenodd" clip-rule="evenodd" d="M1.51621 1.75359C0.735158 2.53464 0.735158 3.80097 1.51621 4.58202L3.93418 6.99999L1.51621 9.41796C0.735158 10.199 0.735158 11.4653 1.51621 12.2464L1.75353 12.4837C2.53458 13.2648 3.80091 13.2648 4.58196 12.4837L6.99993 10.0657L9.4179 12.4837C10.199 13.2648 11.4653 13.2648 12.2463 12.4837L12.4837 12.2464C13.2647 11.4653 13.2647 10.199 12.4837 9.41796L10.0657 6.99999L12.4837 4.58202C13.2647 3.80097 13.2647 2.53464 12.4837 1.75359L12.2463 1.51627C11.4653 0.735219 10.199 0.735219 9.4179 1.51627L6.99993 3.93424L4.58196 1.51627C3.80091 0.735219 2.53458 0.735219 1.75353 1.51627L1.51621 1.75359Z" fill="#868686"/>
</g>
<defs>
<filter id="filter0_i_1_284" x="0.93042" y="0.930481" width="12.139" height="13.139" filterUnits="userSpaceOnUse" color-interpolation-filters="sRGB">
<feFlood flood-opacity="0" result="BackgroundImageFix"/>
<feBlend mode="normal" in="SourceGraphic" in2="BackgroundImageFix" result="shape"/>
<feColorMatrix in="SourceAlpha" type="matrix" values="0 0 0 0 0 0 0 0 0 0 0 0 0 0 0 0 0 0 127 0" result="hardAlpha"/>
<feOffset dy="1"/>
<feGaussianBlur stdDeviation="1"/>
<feComposite in2="hardAlpha" operator="arithmetic" k2="-1" k3="1"/>
<feColorMatrix type="matrix" values="0 0 0 0 0 0 0 0 0 0 0 0 0 0 0 0 0 0 0.7 0"/>
<feBlend mode="normal" in2="shape" result="effect1_innerShadow_1_284"/>
</filter>
</defs>
</svg>
